# Blender v2.92.0 OBJ File: 'RGB_Stool.blend'
# www.blender.org
mtllib RGB_Stool.mtl
o Leg1_Cube
v 0.225000 0.150000 0.630000
v 0.225000 0.250000 0.630000
v 0.225000 0.150000 0.030000
v 0.225000 0.250000 0.030000
v -0.225000 0.150000 0.630000
v -0.225000 0.250000 0.630000
v -0.225000 0.150000 0.030000
v -0.225000 0.250000 0.030000
vt 0.625000 0.500000
vt 0.875000 0.500000
vt 0.875000 0.750000
vt 0.625000 0.750000
vt 0.375000 0.750000
vt 0.625000 1.000000
vt 0.375000 1.000000
vt 0.375000 0.000000
vt 0.625000 0.000000
vt 0.625000 0.250000
vt 0.375000 0.250000
vt 0.125000 0.500000
vt 0.375000 0.500000
vt 0.125000 0.750000
vn 0.0000 -1.0000 -0.0000
vn 0.0000 0.0000 -1.0000
vn -1.0000 0.0000 0.0000
vn 0.0000 1.0000 0.0000
vn 1.0000 -0.0000 0.0000
vn 0.0000 0.0000 1.0000
usemtl Leg1
s off
f 1/1/1 5/2/1 7/3/1 3/4/1
f 4/5/2 3/4/2 7/6/2 8/7/2
f 8/8/3 7/9/3 5/10/3 6/11/3
f 6/12/4 2/13/4 4/5/4 8/14/4
f 2/13/5 1/1/5 3/4/5 4/5/5
f 6/11/6 5/10/6 1/1/6 2/13/6
o Base_Cube.001
v 0.227250 -0.250500 0.030000
v 0.227250 -0.149500 0.030000
v -0.227250 -0.250500 0.030000
v -0.227250 -0.149500 0.030000
v 0.227250 0.149500 0.030000
v 0.227250 0.250500 0.030000
v -0.227250 0.149500 0.030000
v -0.227250 0.250500 0.030000
v 0.300000 0.300000 0.150000
v 0.300000 0.300000 -0.000000
v 0.300000 -0.300000 0.150000
v 0.300000 -0.300000 -0.000000
v -0.300000 0.300000 0.150000
v -0.300000 0.300000 -0.000000
v -0.300000 -0.300000 0.150000
v -0.300000 -0.300000 -0.000000
v 0.227250 0.149500 0.150000
v -0.227250 0.149500 0.150000
v -0.227250 0.250500 0.150000
v 0.227250 0.250500 0.150000
v 0.227250 -0.250500 0.150000
v -0.227250 -0.250500 0.150000
v -0.227250 -0.149500 0.150000
v 0.227250 -0.149500 0.150000
vt 0.375000 0.750000
vt 0.625000 0.750000
vt 0.625000 1.000000
vt 0.375000 1.000000
vt 0.375000 0.000000
vt 0.625000 0.000000
vt 0.625000 0.250000
vt 0.375000 0.250000
vt 0.125000 0.500000
vt 0.375000 0.500000
vt 0.125000 0.750000
vt 0.625000 0.500000
vt 0.625000 0.750000
vt 0.875000 0.750000
vt 0.875000 0.700495
vt 0.625000 0.700495
vt 0.375000 0.750000
vt 0.375000 1.000000
vt 0.625000 1.000000
vt 0.625000 0.049505
vt 0.625000 0.000000
vt 0.375000 0.000000
vt 0.375000 0.049505
vt 0.125000 0.700495
vt 0.125000 0.750000
vt 0.375000 0.700495
vt 0.655313 0.520625
vt 0.875000 0.500000
vt 0.844688 0.520625
vt 0.625000 0.750000
vt 0.875000 0.750000
vt 0.875000 0.700495
vt 0.625000 0.700495
vt 0.375000 0.750000
vt 0.375000 1.000000
vt 0.625000 1.000000
vt 0.625000 0.049505
vt 0.625000 0.000000
vt 0.375000 0.000000
vt 0.375000 0.049505
vt 0.125000 0.700495
vt 0.125000 0.750000
vt 0.375000 0.700495
vt 0.655312 0.729375
vt 0.655313 0.562708
vt 0.844687 0.562708
vt 0.875000 0.750000
vt 0.844687 0.729375
vt 0.844688 0.687292
vt 0.655313 0.687292
vn 0.0000 -1.0000 0.0000
vn -1.0000 0.0000 0.0000
vn 0.0000 0.0000 -1.0000
vn 1.0000 0.0000 0.0000
vn 0.0000 1.0000 0.0000
vn 0.0000 0.0000 1.0000
usemtl Base
s off
f 20/15/7 19/16/7 23/17/7 24/18/7
f 24/19/8 23/20/8 21/21/8 22/22/8
f 22/23/9 18/24/9 20/15/9 24/25/9
f 18/24/10 17/26/10 19/16/10 20/15/10
f 22/22/11 21/21/11 17/26/11 18/24/11
f 13/27/11 15/28/11 26/29/11 25/30/11
f 13/27/12 14/31/12 16/32/12 15/33/12
f 26/34/10 15/35/10 16/36/10 27/37/10
f 27/38/7 16/39/7 14/31/7 28/40/7
f 14/31/8 13/27/8 25/30/8 28/40/8
f 28/41/12 17/26/12 21/42/12 27/43/12
f 9/44/11 11/45/11 30/46/11 29/47/11
f 9/44/12 10/48/12 12/49/12 11/50/12
f 30/51/10 11/52/10 12/53/10 31/54/10
f 31/55/7 12/56/7 10/48/7 32/57/7
f 10/48/8 9/44/8 29/47/8 32/57/8
f 29/58/12 19/16/12 17/26/12 28/41/12 25/59/12 26/60/12 27/43/12 21/42/12 23/61/12 30/62/12 31/63/12 32/64/12
f 30/62/12 23/61/12 19/16/12 29/58/12
o Leg2_Cube.002
v 0.225000 -0.250000 0.630000
v 0.225000 -0.150000 0.630000
v 0.225000 -0.250000 0.030000
v 0.225000 -0.150000 0.030000
v -0.225000 -0.250000 0.630000
v -0.225000 -0.150000 0.630000
v -0.225000 -0.250000 0.030000
v -0.225000 -0.150000 0.030000
vt 0.625000 0.500000
vt 0.875000 0.500000
vt 0.875000 0.750000
vt 0.625000 0.750000
vt 0.375000 0.750000
vt 0.625000 1.000000
vt 0.375000 1.000000
vt 0.375000 0.000000
vt 0.625000 0.000000
vt 0.625000 0.250000
vt 0.375000 0.250000
vt 0.125000 0.500000
vt 0.375000 0.500000
vt 0.125000 0.750000
vn -0.0000 -1.0000 -0.0000
vn -0.0000 0.0000 -1.0000
vn -1.0000 0.0000 0.0000
vn 0.0000 1.0000 0.0000
vn 1.0000 -0.0000 -0.0000
vn 0.0000 0.0000 1.0000
usemtl Leg2
s off
f 33/65/13 37/66/13 39/67/13 35/68/13
f 36/69/14 35/68/14 39/70/14 40/71/14
f 40/72/15 39/73/15 37/74/15 38/75/15
f 38/76/16 34/77/16 36/69/16 40/78/16
f 34/77/17 33/65/17 35/68/17 36/69/17
f 38/75/18 37/74/18 33/65/18 34/77/18
